<svg width="500" height="500" viewBox="0 0 500 500" fill="none" xmlns="http://www.w3.org/2000/svg">
<path d="M226.2 160.485C212.864 157.548 194.722 160.524 182.823 170.983C168.133 183.896 161.372 206.164 173.755 238.892C185.469 269.858 216.349 294.039 243.289 305.472C249.301 308.024 254.669 308.462 259.207 307.238" stroke="#353535" stroke-width="8"/>
<g filter="url(#filter0_d_2275_2)">
<path d="M241.596 303.839C224.065 279.3 208.709 240.898 212.207 206.115C215.904 169.351 231.058 152.192 248.81 147.812C264.642 143.905 282.183 151.678 292.323 163.664" stroke="#353535" stroke-width="8"/>
</g>
<g filter="url(#filter1_d_2275_2)">
<path d="M260.709 194.644L260.709 194.644C270.088 180.008 279.626 171.252 288.593 166.693C297.475 162.178 306.004 161.666 313.8 163.859C323.42 166.565 330.745 171.812 335.563 179.068C340.4 186.354 342.872 195.919 342.281 207.474C340.803 236.332 326.499 259.299 309.914 275.99C293.268 292.742 274.612 302.874 265.172 306.054C259.975 307.805 255.581 307.38 252.281 305.275C248.935 303.14 245.949 298.789 244.723 291.165C239.997 261.776 243.191 221.98 260.709 194.644Z" stroke="#353535" stroke-width="8" shape-rendering="crispEdges"/>
</g>
<path d="M163.375 363H160.554L149.208 345.795V363H146.387V341.362H149.208L160.554 358.536V341.362H163.375V363ZM175.593 363.279C174.002 363.279 172.555 362.917 171.253 362.194C169.972 361.471 168.959 360.448 168.215 359.125C167.492 357.782 167.13 356.232 167.13 354.475C167.13 352.739 167.502 351.21 168.246 349.887C169.011 348.544 170.044 347.521 171.346 346.818C172.648 346.095 174.105 345.733 175.717 345.733C177.329 345.733 178.786 346.095 180.088 346.818C181.39 347.521 182.413 348.533 183.157 349.856C183.922 351.179 184.304 352.718 184.304 354.475C184.304 356.232 183.911 357.782 183.126 359.125C182.361 360.448 181.318 361.471 179.995 362.194C178.672 362.917 177.205 363.279 175.593 363.279ZM175.593 360.799C176.606 360.799 177.556 360.561 178.445 360.086C179.334 359.611 180.047 358.898 180.584 357.947C181.142 356.996 181.421 355.839 181.421 354.475C181.421 353.111 181.152 351.954 180.615 351.003C180.078 350.052 179.375 349.35 178.507 348.895C177.639 348.42 176.699 348.182 175.686 348.182C174.653 348.182 173.702 348.42 172.834 348.895C171.987 349.35 171.305 350.052 170.788 351.003C170.271 351.954 170.013 353.111 170.013 354.475C170.013 355.86 170.261 357.027 170.757 357.978C171.274 358.929 171.956 359.642 172.803 360.117C173.65 360.572 174.58 360.799 175.593 360.799ZM191.454 348.337V358.35C191.454 359.177 191.63 359.766 191.981 360.117C192.332 360.448 192.942 360.613 193.81 360.613H195.887V363H193.345C191.774 363 190.596 362.638 189.811 361.915C189.026 361.192 188.633 360.003 188.633 358.35V348.337H186.432V346.012H188.633V341.734H191.454V346.012H195.887V348.337H191.454ZM207.737 345.702C209.018 345.702 210.176 345.981 211.209 346.539C212.242 347.076 213.048 347.893 213.627 348.988C214.226 350.083 214.526 351.416 214.526 352.987V363H211.736V353.39C211.736 351.695 211.312 350.404 210.465 349.515C209.618 348.606 208.46 348.151 206.993 348.151C205.505 348.151 204.317 348.616 203.428 349.546C202.56 350.476 202.126 351.83 202.126 353.607V363H199.305V340.06H202.126V348.43C202.684 347.562 203.449 346.89 204.42 346.415C205.412 345.94 206.518 345.702 207.737 345.702ZM220.591 343.253C220.054 343.253 219.599 343.067 219.227 342.695C218.855 342.323 218.669 341.868 218.669 341.331C218.669 340.794 218.855 340.339 219.227 339.967C219.599 339.595 220.054 339.409 220.591 339.409C221.108 339.409 221.542 339.595 221.893 339.967C222.265 340.339 222.451 340.794 222.451 341.331C222.451 341.868 222.265 342.323 221.893 342.695C221.542 343.067 221.108 343.253 220.591 343.253ZM221.955 346.012V363H219.134V346.012H221.955ZM235.04 345.702C237.107 345.702 238.781 346.332 240.062 347.593C241.343 348.833 241.984 350.631 241.984 352.987V363H239.194V353.39C239.194 351.695 238.77 350.404 237.923 349.515C237.076 348.606 235.918 348.151 234.451 348.151C232.963 348.151 231.775 348.616 230.886 349.546C230.018 350.476 229.584 351.83 229.584 353.607V363H226.763V346.012H229.584V348.43C230.142 347.562 230.896 346.89 231.847 346.415C232.818 345.94 233.883 345.702 235.04 345.702ZM253.598 345.733C255.065 345.733 256.347 346.053 257.442 346.694C258.558 347.335 259.385 348.141 259.922 349.112V346.012H262.774V363.372C262.774 364.922 262.443 366.296 261.782 367.495C261.121 368.714 260.17 369.665 258.93 370.347C257.711 371.029 256.285 371.37 254.652 371.37C252.42 371.37 250.56 370.843 249.072 369.789C247.584 368.735 246.706 367.299 246.437 365.48H249.227C249.537 366.513 250.178 367.34 251.149 367.96C252.12 368.601 253.288 368.921 254.652 368.921C256.202 368.921 257.463 368.435 258.434 367.464C259.426 366.493 259.922 365.129 259.922 363.372V359.807C259.364 360.799 258.537 361.626 257.442 362.287C256.347 362.948 255.065 363.279 253.598 363.279C252.089 363.279 250.715 362.907 249.475 362.163C248.256 361.419 247.295 360.375 246.592 359.032C245.889 357.689 245.538 356.159 245.538 354.444C245.538 352.708 245.889 351.189 246.592 349.887C247.295 348.564 248.256 347.541 249.475 346.818C250.715 346.095 252.089 345.733 253.598 345.733ZM259.922 354.475C259.922 353.194 259.664 352.078 259.147 351.127C258.63 350.176 257.928 349.453 257.039 348.957C256.171 348.44 255.21 348.182 254.156 348.182C253.102 348.182 252.141 348.43 251.273 348.926C250.405 349.422 249.713 350.145 249.196 351.096C248.679 352.047 248.421 353.163 248.421 354.444C248.421 355.746 248.679 356.883 249.196 357.854C249.713 358.805 250.405 359.538 251.273 360.055C252.141 360.551 253.102 360.799 254.156 360.799C255.21 360.799 256.171 360.551 257.039 360.055C257.928 359.538 258.63 358.805 259.147 357.854C259.664 356.883 259.922 355.756 259.922 354.475ZM292.453 341.393V363H289.632V353.204H278.627V363H275.806V341.393H278.627V350.879H289.632V341.393H292.453ZM312.77 353.855C312.77 354.392 312.739 354.961 312.677 355.56H299.099C299.202 357.234 299.77 358.546 300.804 359.497C301.858 360.427 303.129 360.892 304.617 360.892C305.836 360.892 306.849 360.613 307.655 360.055C308.481 359.476 309.06 358.712 309.391 357.761H312.429C311.974 359.394 311.065 360.727 309.701 361.76C308.337 362.773 306.642 363.279 304.617 363.279C303.005 363.279 301.558 362.917 300.277 362.194C299.016 361.471 298.024 360.448 297.301 359.125C296.577 357.782 296.216 356.232 296.216 354.475C296.216 352.718 296.567 351.179 297.27 349.856C297.972 348.533 298.954 347.521 300.215 346.818C301.496 346.095 302.963 345.733 304.617 345.733C306.229 345.733 307.655 346.084 308.895 346.787C310.135 347.49 311.085 348.461 311.747 349.701C312.429 350.92 312.77 352.305 312.77 353.855ZM309.856 353.266C309.856 352.191 309.618 351.272 309.143 350.507C308.667 349.722 308.016 349.133 307.19 348.74C306.384 348.327 305.485 348.12 304.493 348.12C303.067 348.12 301.847 348.575 300.835 349.484C299.843 350.393 299.274 351.654 299.13 353.266H309.856ZM319.314 348.771C319.81 347.8 320.513 347.045 321.422 346.508C322.352 345.971 323.479 345.702 324.801 345.702V348.616H324.057C320.895 348.616 319.314 350.331 319.314 353.762V363H316.493V346.012H319.314V348.771ZM343.558 353.855C343.558 354.392 343.527 354.961 343.465 355.56H329.887C329.99 357.234 330.559 358.546 331.592 359.497C332.646 360.427 333.917 360.892 335.405 360.892C336.624 360.892 337.637 360.613 338.443 360.055C339.27 359.476 339.848 358.712 340.179 357.761H343.217C342.762 359.394 341.853 360.727 340.489 361.76C339.125 362.773 337.43 363.279 335.405 363.279C333.793 363.279 332.346 362.917 331.065 362.194C329.804 361.471 328.812 360.448 328.089 359.125C327.366 357.782 327.004 356.232 327.004 354.475C327.004 352.718 327.355 351.179 328.058 349.856C328.761 348.533 329.742 347.521 331.003 346.818C332.284 346.095 333.752 345.733 335.405 345.733C337.017 345.733 338.443 346.084 339.683 346.787C340.923 347.49 341.874 348.461 342.535 349.701C343.217 350.92 343.558 352.305 343.558 353.855ZM340.644 353.266C340.644 352.191 340.406 351.272 339.931 350.507C339.456 349.722 338.805 349.133 337.978 348.74C337.172 348.327 336.273 348.12 335.281 348.12C333.855 348.12 332.636 348.575 331.623 349.484C330.631 350.393 330.063 351.654 329.918 353.266H340.644ZM350.94 341.393L350.599 356.893H348.243L347.902 341.393H350.94ZM349.545 363.186C349.007 363.186 348.553 363 348.181 362.628C347.809 362.256 347.623 361.801 347.623 361.264C347.623 360.727 347.809 360.272 348.181 359.9C348.553 359.528 349.007 359.342 349.545 359.342C350.061 359.342 350.495 359.528 350.847 359.9C351.219 360.272 351.405 360.727 351.405 361.264C351.405 361.801 351.219 362.256 350.847 362.628C350.495 363 350.061 363.186 349.545 363.186Z" fill="#D6D6D6" fill-opacity="0.69"/>
<defs>
<filter id="filter0_d_2275_2" x="205.695" y="139.8" width="91.7754" height="167.505" filterUnits="userSpaceOnUse" color-interpolation-filters="sRGB">
<feFlood flood-opacity="0" result="BackgroundImageFix"/>
<feColorMatrix in="SourceAlpha" type="matrix" values="0 0 0 0 0 0 0 0 0 0 0 0 0 0 0 0 0 0 127 0" result="hardAlpha"/>
<feOffset dy="-1"/>
<feGaussianBlur stdDeviation="1"/>
<feComposite in2="hardAlpha" operator="out"/>
<feColorMatrix type="matrix" values="0 0 0 0 0 0 0 0 0 0 0 0 0 0 0 0 0 0 0.1 0"/>
<feBlend mode="normal" in2="BackgroundImageFix" result="effect1_dropShadow_2275_2"/>
<feBlend mode="normal" in="SourceGraphic" in2="effect1_dropShadow_2275_2" result="shape"/>
</filter>
<filter id="filter1_d_2275_2" x="236.697" y="155.66" width="111.729" height="156.425" filterUnits="userSpaceOnUse" color-interpolation-filters="sRGB">
<feFlood flood-opacity="0" result="BackgroundImageFix"/>
<feColorMatrix in="SourceAlpha" type="matrix" values="0 0 0 0 0 0 0 0 0 0 0 0 0 0 0 0 0 0 127 0" result="hardAlpha"/>
<feOffset dy="-1"/>
<feGaussianBlur stdDeviation="1"/>
<feComposite in2="hardAlpha" operator="out"/>
<feColorMatrix type="matrix" values="0 0 0 0 0 0 0 0 0 0 0 0 0 0 0 0 0 0 0.1 0"/>
<feBlend mode="normal" in2="BackgroundImageFix" result="effect1_dropShadow_2275_2"/>
<feBlend mode="normal" in="SourceGraphic" in2="effect1_dropShadow_2275_2" result="shape"/>
</filter>
</defs>
</svg>
